<svg width="12" height="13" viewBox="0 0 12 13" fill="none" xmlns="http://www.w3.org/2000/svg">
<path d="M1.28333 12H10.05L9 4.66663H2.33333L1.28333 12ZM5.66667 3.66663C5.95556 3.66663 6.19444 3.5694 6.38333 3.37496C6.57222 3.18051 6.66667 2.9444 6.66667 2.66663C6.66667 2.37774 6.57222 2.13885 6.38333 1.94996C6.19444 1.76107 5.95556 1.66663 5.66667 1.66663C5.38889 1.66663 5.15278 1.76107 4.95833 1.94996C4.76389 2.13885 4.66667 2.37774 4.66667 2.66663C4.66667 2.9444 4.76389 3.18051 4.95833 3.37496C5.15278 3.5694 5.38889 3.66663 5.66667 3.66663ZM7.4 3.66663H9C9.25556 3.66663 9.47778 3.74718 9.66667 3.90829C9.85556 4.0694 9.96667 4.27774 10 4.53329L11.0333 11.8666C11.0778 12.1666 11.0028 12.4305 10.8083 12.6583C10.6139 12.8861 10.3611 13 10.05 13H1.28333C0.972223 13 0.719445 12.8861 0.525001 12.6583C0.330556 12.4305 0.255556 12.1666 0.300001 11.8666L1.33333 4.53329C1.36667 4.27774 1.47778 4.0694 1.66667 3.90829C1.85556 3.74718 2.07778 3.66663 2.33333 3.66663H3.93333C3.84444 3.51107 3.77778 3.35274 3.73333 3.19163C3.68889 3.03051 3.66667 2.85551 3.66667 2.66663C3.66667 2.11107 3.86111 1.63885 4.25 1.24996C4.63889 0.86107 5.11111 0.666626 5.66667 0.666626C6.22222 0.666626 6.69444 0.86107 7.08333 1.24996C7.47222 1.63885 7.66667 2.11107 7.66667 2.66663C7.66667 2.85551 7.64444 3.03051 7.6 3.19163C7.55556 3.35274 7.48889 3.51107 7.4 3.66663ZM1.28333 12H10.05H1.28333Z" fill="#1D1D1D"/>
</svg>
