<svg width="8" height="14" viewBox="0 0 8 14" fill="none" xmlns="http://www.w3.org/2000/svg">
<path d="M-2.38419e-07 1.33337C-2.38419e-07 1.06671 0.1 0.833374 0.3 0.633374C0.5 0.433374 0.733333 0.333374 1 0.333374L7 0.333374C7.25556 0.333374 7.48611 0.433374 7.69167 0.633374C7.89722 0.833374 8 1.06671 8 1.33337V12.6667C8 12.9334 7.89722 13.1667 7.69167 13.3667C7.48611 13.5667 7.25556 13.6667 7 13.6667H1C0.733333 13.6667 0.5 13.5667 0.3 13.3667C0.1 13.1667 -2.38419e-07 12.9334 -2.38419e-07 12.6667V1.33337ZM1 1.33337L1 12.6667H7V10.5H4V9.50004H7L7 7.50004H4V6.50004H7V4.50004H4V3.50004L7 3.50004V1.33337L1 1.33337ZM4 3.50004V4.50004V3.50004ZM4 6.50004V7.50004V6.50004ZM4 9.50004V10.5V9.50004Z" fill="#1D1D1D"/>
</svg>
